<svg width="25" height="25" viewBox="0 0 25 25" fill="none" xmlns="http://www.w3.org/2000/svg">
<path d="M3.15408 0.519199L12.5 9.86478L21.8075 0.557658C22.1371 0.20691 22.5953 0.00557658 23.0767 0C24.1387 0 24.9997 0.860909 24.9997 1.92296C25.0087 2.39947 24.8208 2.85867 24.4805 3.19211L15.0769 12.4992L24.4805 21.9025C24.7974 22.2125 24.9833 22.6325 24.9997 23.0755C24.9997 24.1376 24.1387 24.9985 23.0767 24.9985C22.5811 25.0191 22.0998 24.8306 21.7498 24.4793L12.5 15.1337L3.17331 24.46C2.84505 24.7991 2.39506 24.9929 1.92334 24.9985C0.861252 24.9985 0.00031167 24.1376 0.00031167 23.0755C-0.00872657 22.599 0.179153 22.1398 0.519529 21.8064L9.92314 12.4992L0.519529 3.09596C0.202614 2.78598 0.0166574 2.36601 0.00031167 1.92296C0.00031167 0.860909 0.861252 0 1.92334 0C2.38564 0.00557658 2.82736 0.191911 3.15408 0.519199Z" fill="white"/>
</svg>
