<svg width="20" height="20" viewBox="0 0 20 20" fill="none" xmlns="http://www.w3.org/2000/svg">
<path d="M14.5276 1.71558H10.763V0H5.65099V1.71558H1.88647V4.42438H14.5276V1.71558V1.71558ZM7.00539 1.3544H9.40864V1.71558H7.00539V1.3544Z" fill="white"/>
<path d="M13.3247 9.67539L13.5803 5.77878H2.83386L3.69237 18.8713H8.84686C8.17594 17.9202 7.78131 16.7609 7.78131 15.5111C7.78131 12.3896 10.2415 9.83201 13.3247 9.67539Z" fill="white"/>
<path d="M13.6246 11.0222C11.1494 11.0222 9.13568 13.0359 9.13568 15.511C9.13568 17.9862 11.1494 20 13.6246 20C16.0998 20 18.1136 17.9863 18.1136 15.511C18.1136 13.0358 16.0998 11.0222 13.6246 11.0222ZM16.0705 16.9992L15.1128 17.9569L13.6246 16.4687L12.1364 17.9569L11.1788 16.9992L12.6669 15.511L11.1788 14.0229L12.1364 13.0652L13.6246 14.5534L15.1128 13.0652L16.0705 14.0229L14.5823 15.511L16.0705 16.9992Z" fill="white"/>
</svg>
