<svg width="20" height="20" viewBox="0 0 20 20" fill="none" xmlns="http://www.w3.org/2000/svg">
<g clip-path="url(#clip0_2_145)">
<path d="M19.4183 2.59237V2.27802C19.4183 1.02062 18.3977 0 17.1403 0C15.8829 0 14.8622 1.02062 14.8622 2.27802V2.59237H19.4183Z" fill="white"/>
<path d="M14.107 17.9424H1.60239C1.03493 17.9424 0.573608 18.4038 0.573608 18.9712C0.573608 19.5387 1.03493 20 1.60239 20H15.5195L14.107 17.9424Z" fill="white"/>
<path d="M13.5314 5.60522H1.60239C1.03493 5.60522 0.573608 6.06654 0.573608 6.63401C0.573608 7.20147 1.03493 7.66279 1.60239 7.66279H13.5314V5.60522Z" fill="white"/>
<path d="M13.5314 9.71628H1.60239C1.03493 9.71628 0.573608 10.1776 0.573608 10.7451C0.573608 11.3125 1.03493 11.7738 1.60239 11.7738H13.5314V9.71628Z" fill="white"/>
<path d="M13.5314 13.8273H1.60239C1.03493 13.8273 0.573608 14.2886 0.573608 14.8561C0.573608 15.4235 1.03493 15.8849 1.60239 15.8849H13.5314V13.8273Z" fill="white"/>
<path d="M14.8663 3.92734V16.7014L16.9402 19.6979C17.0382 19.8408 17.2505 19.8408 17.3526 19.6979L19.4264 16.7014V3.92734H14.8663Z" fill="white"/>
</g>
<defs>
<clipPath id="clip0_2_145">
<rect width="20" height="20" fill="white"/>
</clipPath>
</defs>
</svg>
