<svg width="19" height="23" viewBox="0 0 19 23" fill="none" xmlns="http://www.w3.org/2000/svg">
<path d="M18.4777 4.98488C18.4769 4.97655 18.4755 4.96845 18.4741 4.96035C18.4736 4.95765 18.4734 4.95486 18.4728 4.95216C18.4709 4.94248 18.4684 4.93303 18.4657 4.92371C18.4654 4.92259 18.4651 4.92137 18.4648 4.92024C18.4619 4.91066 18.4584 4.9013 18.4547 4.89211C18.4543 4.89117 18.454 4.89018 18.4537 4.88923C18.45 4.88046 18.4459 4.87195 18.4416 4.86358C18.4408 4.86218 18.4402 4.86074 18.4395 4.85935C18.4353 4.85156 18.4307 4.84409 18.426 4.83666C18.4248 4.83477 18.4237 4.83279 18.4225 4.83095C18.4179 4.82401 18.4128 4.81744 18.4077 4.81087C18.406 4.80871 18.4045 4.80646 18.4028 4.80434C18.3964 4.79656 18.3895 4.78913 18.3825 4.78193C18.3818 4.78125 18.3813 4.78053 18.3806 4.77986L13.6996 0.0988415C13.6988 0.0980313 13.6979 0.0973562 13.697 0.096546C13.69 0.0896595 13.6828 0.082998 13.6751 0.0767417C13.6727 0.0747162 13.6701 0.0730059 13.6675 0.0710704C13.6613 0.0662544 13.6552 0.0614384 13.6486 0.0570724C13.6463 0.0555421 13.6439 0.0542818 13.6416 0.0527965C13.6346 0.0483405 13.6276 0.0439295 13.6202 0.0400137C13.6186 0.0391585 13.6169 0.0384384 13.6152 0.0376282C13.6071 0.0334423 13.5988 0.0293914 13.5903 0.0258356C13.5892 0.0253855 13.5881 0.0250704 13.587 0.0246204C13.5779 0.0209746 13.5687 0.0175538 13.5593 0.0146732C13.558 0.0143131 13.5568 0.0140881 13.5556 0.013728C13.5463 0.0110274 13.5369 0.00855186 13.5273 0.00661644C13.5245 0.00603131 13.5216 0.00580626 13.5187 0.00531115C13.5107 0.00391585 13.5028 0.00252055 13.4946 0.00171037C13.4834 0.000585127 13.4722 0 13.4609 0H2.29843C1.31812 0 0.520546 0.797573 0.520546 1.77789V21.2221C0.520546 22.2024 1.31812 23 2.29843 23H16.7016C17.6819 23 18.4794 22.2024 18.4794 21.2221V5.01859C18.4794 5.00729 18.4789 4.99604 18.4777 4.98488ZM13.7984 1.15252L17.3269 4.68102H14.9012C14.2931 4.68102 13.7984 4.18636 13.7984 3.57828V1.15252ZM16.7016 22.3249H2.29843C1.6904 22.3249 1.19569 21.8302 1.19569 21.2221V1.77789C1.19569 1.1698 1.6904 0.675147 2.29843 0.675147H13.1233V3.57828C13.1233 4.55859 13.9209 5.35616 14.9012 5.35616H17.8043V21.2221C17.8043 21.8302 17.3096 22.3249 16.7016 22.3249Z" fill="black"/>
</svg>
